<svg width="670" height="128" viewBox="0 0 670 128" fill="none" xmlns="http://www.w3.org/2000/svg">
<g clip-path="url(#clip0_9270_32)">
<path d="M128 64C128 28.6538 99.3462 0 64 0C28.6538 0 0 28.6538 0 64C0 99.3462 28.6538 128 64 128C99.3462 128 128 99.3462 128 64Z" fill="#FEE000"/>
<path fill-rule="evenodd" clip-rule="evenodd" d="M99.3186 44.6815C100.662 44.6815 101.879 45.2331 102.76 46.1271C103.635 47.0159 104.178 48.2434 104.178 49.6C104.178 50.9565 103.635 52.1841 102.76 53.0728C101.879 53.9668 100.662 54.5185 99.3186 54.5185H84.1482V44.6815H99.3186Z" fill="#F33000" fill-opacity="0.919089"/>
<path fill-rule="evenodd" clip-rule="evenodd" d="M83.2 44.6815C83.2 44.1578 83.6245 43.7333 84.1481 43.7333H99.3185C100.928 43.7333 102.385 44.3954 103.435 45.4618C104.479 46.5218 105.126 47.9859 105.126 49.6C105.126 51.2141 104.479 52.6783 103.435 53.7382C102.385 54.8046 100.928 55.4667 99.3185 55.4667H84.1481C83.6245 55.4667 83.2 55.0422 83.2 54.5185V44.6815ZM85.0962 45.6296V53.5704H99.3185C100.396 53.5704 101.373 53.1291 102.084 52.4075C102.791 51.6899 103.23 50.699 103.23 49.6C103.23 48.501 102.791 47.5101 102.084 46.7925C101.373 46.0709 100.396 45.6296 99.3185 45.6296H85.0962Z" fill="black"/>
<path fill-rule="evenodd" clip-rule="evenodd" d="M74.0149 28.4445C79.6932 28.4445 84.8339 30.746 88.5551 34.4672C92.2762 38.1884 94.5778 43.3291 94.5778 49.0074C94.5778 49.7559 94.5378 50.495 94.4598 51.2228V76.7772C94.5378 77.505 94.5778 78.2441 94.5778 78.9926C94.5778 84.6094 92.3258 89.7002 88.6755 93.4113C85.0181 97.1297 79.9569 99.463 74.3507 99.5529L74.0751 99.5551L44.4445 99.5556H44.3852C38.7685 99.5556 33.6777 97.3036 29.9665 93.6533C26.2481 89.9959 23.9148 84.9347 23.825 79.3285L23.8223 78.9965C23.8212 73.3166 26.123 68.1744 29.845 64.4524C33.5662 60.7312 38.7069 58.4296 44.3852 58.4296H53.3334V48.7102L53.454 48.7103L53.4547 48.6674C53.5436 43.1806 55.7815 38.2163 59.3634 34.5793L59.4746 34.4672C63.1958 30.746 68.3366 28.4445 74.0149 28.4445Z" fill="white"/>
<path fill-rule="evenodd" clip-rule="evenodd" d="M60.1461 35.1365C60.1457 35.1369 60.1454 35.1372 60.145 35.1376L60.0389 35.2445C60.0385 35.2449 60.0382 35.2452 60.0379 35.2456C56.6207 38.7158 54.4874 43.4496 54.4026 48.6827L54.402 48.724C54.3996 48.8872 54.3561 49.0403 54.2814 49.1735V58.4296C54.2814 58.9533 53.8569 59.3778 53.3333 59.3778H44.3851C38.9684 59.3778 34.066 61.5722 30.5154 65.1228C26.9647 68.6734 24.7703 73.5758 24.7703 78.9926C24.7703 78.9938 24.7703 78.995 24.7703 78.9963L24.7729 79.3132C24.7729 79.3145 24.7729 79.3157 24.7729 79.3169C24.8596 84.663 27.084 89.4882 30.6313 92.9773C34.1723 96.4602 39.027 98.6074 44.3851 98.6074L74.0674 98.6069L74.075 98.6069L74.3354 98.6048C74.3368 98.6048 74.3381 98.6048 74.3395 98.6048C79.6854 98.518 84.5105 96.2936 87.9995 92.7464C91.4824 89.2054 93.6296 84.3507 93.6296 78.9926C93.6296 78.2779 93.5914 77.5725 93.517 76.8782C93.5134 76.8447 93.5116 76.8109 93.5116 76.7772V51.2228C93.5116 51.189 93.5134 51.1553 93.517 51.1217C93.5914 50.4275 93.6296 49.722 93.6296 49.0074C93.6296 43.5906 91.4352 38.6882 87.8845 35.1376C84.3339 31.587 79.4315 29.3926 74.0148 29.3926C68.5986 29.3926 63.6966 31.5865 60.1461 35.1365ZM52.5176 48.2269C52.7164 42.6558 55.0345 37.6235 58.6878 33.9139L58.6904 33.9114L58.8016 33.7993L58.8041 33.7967C62.6958 29.905 68.0749 27.4963 74.0148 27.4963C79.9546 27.4963 85.3337 29.905 89.2254 33.7967C93.1171 37.6884 95.5259 43.0675 95.5259 49.0074C95.5259 49.7723 95.4859 50.5281 95.4079 51.2729V76.7271C95.4859 77.4719 95.5259 78.2277 95.5259 78.9926C95.5259 84.868 93.169 90.1949 89.3514 94.0762C85.5265 97.9649 80.2308 100.407 74.3658 100.501L74.3582 100.501L74.0826 100.503L74.075 100.503L44.3851 100.504C38.5097 100.504 33.1828 98.1469 29.3015 94.3292C25.4128 90.5043 22.9708 85.2086 22.8768 79.3436L22.8767 79.3361L22.8741 79.0041L22.874 78.9966C22.8729 73.0552 25.2819 67.6745 29.1745 63.7819C33.0662 59.8902 38.4453 57.4815 44.3851 57.4815H52.3851V48.7102C52.3851 48.5387 52.4316 48.372 52.5176 48.2269Z" fill="black"/>
<path d="M79.7629 49.6593C81.923 49.6593 83.674 47.9082 83.674 45.7481C83.674 43.5881 81.923 41.837 79.7629 41.837C77.6029 41.837 75.8518 43.5881 75.8518 45.7481C75.8518 47.9082 77.6029 49.6593 79.7629 49.6593Z" fill="black"/>
</g>
<path d="M166.068 99V29.1818H194.023C199.159 29.1818 203.443 29.9432 206.875 31.4659C210.307 32.9886 212.886 35.1023 214.614 37.8068C216.341 40.4886 217.205 43.5795 217.205 47.0795C217.205 49.8068 216.659 52.2045 215.568 54.2727C214.477 56.3182 212.977 58 211.068 59.3182C209.182 60.6136 207.023 61.5341 204.591 62.0795V62.7614C207.25 62.875 209.739 63.625 212.057 65.0114C214.398 66.3977 216.295 68.3409 217.75 70.8409C219.205 73.3182 219.932 76.2727 219.932 79.7045C219.932 83.4091 219.011 86.7159 217.17 89.625C215.352 92.5114 212.659 94.7955 209.091 96.4773C205.523 98.1591 201.125 99 195.898 99H166.068ZM180.83 86.9318H192.864C196.977 86.9318 199.977 86.1477 201.864 84.5795C203.75 82.9886 204.693 80.875 204.693 78.2386C204.693 76.3068 204.227 74.6023 203.295 73.125C202.364 71.6477 201.034 70.4886 199.307 69.6477C197.602 68.8068 195.568 68.3864 193.205 68.3864H180.83V86.9318ZM180.83 58.3977H191.773C193.795 58.3977 195.591 58.0455 197.159 57.3409C198.75 56.6136 200 55.5909 200.909 54.2727C201.841 52.9545 202.307 51.375 202.307 49.5341C202.307 47.0114 201.409 44.9773 199.614 43.4318C197.841 41.8864 195.318 41.1136 192.045 41.1136H180.83V58.3977ZM243.787 29.1818V99H229.264V29.1818H243.787ZM279.284 100.023C273.898 100.023 269.261 98.9318 265.375 96.75C261.511 94.5455 258.534 91.4318 256.443 87.4091C254.352 83.3636 253.307 78.5795 253.307 73.0568C253.307 67.6705 254.352 62.9432 256.443 58.875C258.534 54.8068 261.477 51.6364 265.273 49.3636C269.091 47.0909 273.568 45.9545 278.705 45.9545C282.159 45.9545 285.375 46.5114 288.352 47.625C291.352 48.7159 293.966 50.3636 296.193 52.5682C298.443 54.7727 300.193 57.5455 301.443 60.8864C302.693 64.2045 303.318 68.0909 303.318 72.5455V76.5341H259.102V67.5341H289.648C289.648 65.4432 289.193 63.5909 288.284 61.9773C287.375 60.3636 286.114 59.1023 284.5 58.1932C282.909 57.2614 281.057 56.7955 278.943 56.7955C276.739 56.7955 274.784 57.3068 273.08 58.3295C271.398 59.3295 270.08 60.6818 269.125 62.3864C268.17 64.0682 267.682 65.9432 267.659 68.0114V76.5682C267.659 79.1591 268.136 81.3977 269.091 83.2841C270.068 85.1705 271.443 86.625 273.216 87.6477C274.989 88.6705 277.091 89.1818 279.523 89.1818C281.136 89.1818 282.614 88.9545 283.955 88.5C285.295 88.0455 286.443 87.3636 287.398 86.4545C288.352 85.5455 289.08 84.4318 289.58 83.1136L303.011 84C302.33 87.2273 300.932 90.0455 298.818 92.4545C296.727 94.8409 294.023 96.7045 290.705 98.0455C287.409 99.3636 283.602 100.023 279.284 100.023ZM327.318 68.7273V99H312.795V46.6364H326.636V55.875H327.25C328.409 52.8295 330.352 50.4205 333.08 48.6477C335.807 46.8523 339.114 45.9545 343 45.9545C346.636 45.9545 349.807 46.75 352.511 48.3409C355.216 49.9318 357.318 52.2045 358.818 55.1591C360.318 58.0909 361.068 61.5909 361.068 65.6591V99H346.545V68.25C346.568 65.0455 345.75 62.5455 344.091 60.75C342.432 58.9318 340.148 58.0227 337.239 58.0227C335.284 58.0227 333.557 58.4432 332.057 59.2841C330.58 60.125 329.42 61.3523 328.58 62.9659C327.761 64.5568 327.341 66.4773 327.318 68.7273ZM391.81 99.8523C387.832 99.8523 384.23 98.8295 381.003 96.7841C377.798 94.7159 375.253 91.6818 373.366 87.6818C371.503 83.6591 370.571 78.7273 370.571 72.8864C370.571 66.8864 371.537 61.8977 373.469 57.9205C375.401 53.9205 377.969 50.9318 381.173 48.9545C384.401 46.9545 387.935 45.9545 391.776 45.9545C394.707 45.9545 397.151 46.4545 399.105 47.4545C401.082 48.4318 402.673 49.6591 403.878 51.1364C405.105 52.5909 406.037 54.0227 406.673 55.4318H407.116V29.1818H421.605V99H407.287V90.6136H406.673C405.991 92.0682 405.026 93.5114 403.776 94.9432C402.548 96.3523 400.946 97.5227 398.969 98.4545C397.014 99.3864 394.628 99.8523 391.81 99.8523ZM396.412 88.2955C398.753 88.2955 400.73 87.6591 402.344 86.3864C403.98 85.0909 405.23 83.2841 406.094 80.9659C406.98 78.6477 407.423 75.9318 407.423 72.8182C407.423 69.7045 406.991 67 406.128 64.7045C405.264 62.4091 404.014 60.6364 402.378 59.3864C400.741 58.1364 398.753 57.5114 396.412 57.5114C394.026 57.5114 392.014 58.1591 390.378 59.4545C388.741 60.75 387.503 62.5455 386.662 64.8409C385.821 67.1364 385.401 69.7955 385.401 72.8182C385.401 75.8636 385.821 78.5568 386.662 80.8977C387.526 83.2159 388.764 85.0341 390.378 86.3523C392.014 87.6477 394.026 88.2955 396.412 88.2955ZM458.568 99H433.818V29.1818H458.773C465.795 29.1818 471.841 30.5795 476.909 33.375C481.977 36.1477 485.875 40.1364 488.602 45.3409C491.352 50.5455 492.727 56.7727 492.727 64.0227C492.727 71.2955 491.352 77.5455 488.602 82.7727C485.875 88 481.955 92.0114 476.841 94.8068C471.75 97.6023 465.659 99 458.568 99ZM448.58 86.3523H457.955C462.318 86.3523 465.989 85.5795 468.966 84.0341C471.966 82.4659 474.216 80.0455 475.716 76.7727C477.239 73.4773 478 69.2273 478 64.0227C478 58.8636 477.239 54.6477 475.716 51.375C474.216 48.1023 471.977 45.6932 469 44.1477C466.023 42.6023 462.352 41.8295 457.989 41.8295H448.58V86.3523ZM536.969 76.7045V46.6364H551.491V99H537.548V89.4886H537.003C535.821 92.5568 533.855 95.0227 531.105 96.8864C528.378 98.75 525.048 99.6818 521.116 99.6818C517.616 99.6818 514.537 98.8864 511.878 97.2955C509.219 95.7045 507.139 93.4432 505.639 90.5114C504.162 87.5795 503.412 84.0682 503.389 79.9773V46.6364H517.912V77.3864C517.935 80.4773 518.764 82.9205 520.401 84.7159C522.037 86.5114 524.23 87.4091 526.98 87.4091C528.73 87.4091 530.366 87.0114 531.889 86.2159C533.412 85.3977 534.639 84.1932 535.571 82.6023C536.526 81.0114 536.991 79.0455 536.969 76.7045ZM586.767 100.023C581.403 100.023 576.79 98.8864 572.926 96.6136C569.085 94.3182 566.131 91.1364 564.062 87.0682C562.017 83 560.994 78.3182 560.994 73.0227C560.994 67.6591 562.028 62.9545 564.097 58.9091C566.188 54.8409 569.153 51.6705 572.994 49.3977C576.835 47.1023 581.403 45.9545 586.699 45.9545C591.267 45.9545 595.267 46.7841 598.699 48.4432C602.131 50.1023 604.847 52.4318 606.847 55.4318C608.847 58.4318 609.949 61.9545 610.153 66H596.449C596.063 63.3864 595.04 61.2841 593.381 59.6932C591.744 58.0795 589.597 57.2727 586.938 57.2727C584.688 57.2727 582.722 57.8864 581.04 59.1136C579.381 60.3182 578.085 62.0795 577.153 64.3977C576.222 66.7159 575.756 69.5227 575.756 72.8182C575.756 76.1591 576.21 79 577.119 81.3409C578.051 83.6818 579.358 85.4659 581.04 86.6932C582.722 87.9205 584.688 88.5341 586.938 88.5341C588.597 88.5341 590.085 88.1932 591.403 87.5114C592.744 86.8295 593.847 85.8409 594.71 84.5455C595.597 83.2273 596.176 81.6477 596.449 79.8068H610.153C609.926 83.8068 608.835 87.3295 606.881 90.375C604.949 93.3977 602.278 95.7614 598.869 97.4659C595.46 99.1705 591.426 100.023 586.767 100.023ZM632.611 83.9318L632.645 66.5114H634.759L651.531 46.6364H668.202L645.668 72.9545H642.224L632.611 83.9318ZM619.452 99V29.1818H633.974V99H619.452ZM652.179 99L636.77 76.1932L646.452 65.9318L669.19 99H652.179Z" fill="black"/>
<defs>
<clipPath id="clip0_9270_32">
<rect width="128" height="128" fill="white"/>
</clipPath>
</defs>
</svg>
