<svg width="824" height="155" viewBox="0 0 824 155" fill="none" xmlns="http://www.w3.org/2000/svg">
<g clip-path="url(#clip0_9270_32)">
<path d="M128 78C128 42.6538 99.3462 14 64 14C28.6538 14 0 42.6538 0 78C0 113.346 28.6538 142 64 142C99.3462 142 128 113.346 128 78Z" fill="#FEE000"/>
<path fill-rule="evenodd" clip-rule="evenodd" d="M99.3186 58.6815C100.662 58.6815 101.879 59.2331 102.76 60.1271C103.635 61.0159 104.178 62.2434 104.178 63.6C104.178 64.9565 103.635 66.1841 102.76 67.0728C101.879 67.9668 100.662 68.5185 99.3186 68.5185H84.1482V58.6815H99.3186Z" fill="#F33000" fill-opacity="0.919089"/>
<path fill-rule="evenodd" clip-rule="evenodd" d="M83.2 58.6815C83.2 58.1578 83.6245 57.7333 84.1481 57.7333H99.3185C100.928 57.7333 102.385 58.3954 103.435 59.4618C104.479 60.5218 105.126 61.9859 105.126 63.6C105.126 65.2141 104.479 66.6783 103.435 67.7382C102.385 68.8046 100.928 69.4667 99.3185 69.4667H84.1481C83.6245 69.4667 83.2 69.0422 83.2 68.5185V58.6815ZM85.0962 59.6296V67.5704H99.3185C100.396 67.5704 101.373 67.1291 102.084 66.4075C102.791 65.6899 103.23 64.699 103.23 63.6C103.23 62.501 102.791 61.5101 102.084 60.7925C101.373 60.0709 100.396 59.6296 99.3185 59.6296H85.0962Z" fill="black"/>
<path fill-rule="evenodd" clip-rule="evenodd" d="M74.0149 42.4445C79.6932 42.4445 84.8339 44.746 88.5551 48.4672C92.2762 52.1884 94.5778 57.3291 94.5778 63.0074C94.5778 63.7559 94.5378 64.495 94.4598 65.2228V90.7772C94.5378 91.505 94.5778 92.2441 94.5778 92.9926C94.5778 98.6094 92.3258 103.7 88.6755 107.411C85.0181 111.13 79.9569 113.463 74.3507 113.553L74.0751 113.555L44.4445 113.556H44.3852C38.7685 113.556 33.6777 111.304 29.9665 107.653C26.2481 103.996 23.9148 98.9347 23.825 93.3285L23.8223 92.9965C23.8212 87.3166 26.123 82.1744 29.845 78.4524C33.5662 74.7312 38.7069 72.4296 44.3852 72.4296H53.3334V62.7102L53.454 62.7103L53.4547 62.6674C53.5436 57.1806 55.7815 52.2163 59.3634 48.5793L59.4746 48.4672C63.1958 44.746 68.3366 42.4445 74.0149 42.4445Z" fill="white"/>
<path fill-rule="evenodd" clip-rule="evenodd" d="M60.1461 49.1365C60.1457 49.1369 60.1454 49.1372 60.145 49.1376L60.0389 49.2445C60.0385 49.2449 60.0382 49.2452 60.0379 49.2456C56.6207 52.7158 54.4874 57.4496 54.4026 62.6827L54.402 62.724C54.3996 62.8872 54.3561 63.0403 54.2814 63.1735V72.4296C54.2814 72.9533 53.8569 73.3778 53.3333 73.3778H44.3851C38.9684 73.3778 34.066 75.5722 30.5154 79.1228C26.9647 82.6734 24.7703 87.5758 24.7703 92.9926C24.7703 92.9938 24.7703 92.995 24.7703 92.9963L24.7729 93.3132C24.7729 93.3145 24.7729 93.3157 24.7729 93.3169C24.8596 98.663 27.084 103.488 30.6313 106.977C34.1723 110.46 39.027 112.607 44.3851 112.607L74.0674 112.607L74.075 112.607L74.3354 112.605C74.3368 112.605 74.3381 112.605 74.3395 112.605C79.6854 112.518 84.5105 110.294 87.9995 106.746C91.4824 103.205 93.6296 98.3507 93.6296 92.9926C93.6296 92.2779 93.5914 91.5725 93.517 90.8782C93.5134 90.8447 93.5116 90.8109 93.5116 90.7772V65.2228C93.5116 65.189 93.5134 65.1553 93.517 65.1217C93.5914 64.4275 93.6296 63.722 93.6296 63.0074C93.6296 57.5906 91.4352 52.6882 87.8845 49.1376C84.3339 45.587 79.4315 43.3926 74.0148 43.3926C68.5986 43.3926 63.6966 45.5865 60.1461 49.1365ZM52.5176 62.2269C52.7164 56.6558 55.0345 51.6235 58.6878 47.9139L58.6904 47.9114L58.8016 47.7993L58.8041 47.7967C62.6958 43.905 68.0749 41.4963 74.0148 41.4963C79.9546 41.4963 85.3337 43.905 89.2254 47.7967C93.1171 51.6884 95.5259 57.0675 95.5259 63.0074C95.5259 63.7723 95.4859 64.5281 95.4079 65.2729V90.7271C95.4859 91.4719 95.5259 92.2277 95.5259 92.9926C95.5259 98.868 93.169 104.195 89.3514 108.076C85.5265 111.965 80.2308 114.407 74.3658 114.501L74.3582 114.501L74.0826 114.503L74.075 114.503L44.3851 114.504C38.5097 114.504 33.1828 112.147 29.3015 108.329C25.4128 104.504 22.9708 99.2086 22.8768 93.3436L22.8767 93.3361L22.8741 93.0041L22.874 92.9966C22.8729 87.0552 25.2819 81.6745 29.1745 77.7819C33.0662 73.8902 38.4453 71.4815 44.3851 71.4815H52.3851V62.7102C52.3851 62.5387 52.4316 62.372 52.5176 62.2269Z" fill="black"/>
<path d="M79.7629 63.6593C81.923 63.6593 83.674 61.9082 83.674 59.7481C83.674 57.5881 81.923 55.837 79.7629 55.837C77.6029 55.837 75.8518 57.5881 75.8518 59.7481C75.8518 61.9082 77.6029 63.6593 79.7629 63.6593Z" fill="black"/>
</g>
<path d="M174.227 124V30.9091H208.318C214.924 30.9091 220.394 32 224.727 34.1818C229.061 36.3333 232.303 39.2576 234.455 42.9545C236.606 46.6212 237.682 50.7576 237.682 55.3636C237.682 59.2424 236.97 62.5151 235.545 65.1818C234.121 67.8182 232.212 69.9394 229.818 71.5455C227.455 73.1212 224.848 74.2727 222 75V75.9091C225.091 76.0606 228.106 77.0606 231.045 78.9091C234.015 80.7273 236.47 83.3182 238.409 86.6818C240.348 90.0455 241.318 94.1364 241.318 98.9545C241.318 103.712 240.197 107.985 237.955 111.773C235.742 115.53 232.318 118.515 227.682 120.727C223.045 122.909 217.121 124 209.909 124H174.227ZM188.273 111.955H208.545C215.273 111.955 220.091 110.652 223 108.045C225.909 105.439 227.364 102.182 227.364 98.2727C227.364 95.3333 226.621 92.6364 225.136 90.1818C223.652 87.7273 221.53 85.7727 218.773 84.3182C216.045 82.8636 212.803 82.1364 209.045 82.1364H188.273V111.955ZM188.273 71.1818H207.091C210.242 71.1818 213.076 70.5758 215.591 69.3636C218.136 68.1515 220.152 66.4545 221.636 64.2727C223.152 62.0606 223.909 59.4545 223.909 56.4545C223.909 52.6061 222.561 49.3788 219.864 46.7727C217.167 44.1667 213.03 42.8636 207.455 42.8636H188.273V71.1818ZM270.477 30.9091V124H256.886V30.9091H270.477ZM318.852 125.409C311.973 125.409 306.049 123.939 301.08 121C296.14 118.03 292.322 113.864 289.625 108.5C286.958 103.106 285.625 96.7879 285.625 89.5455C285.625 82.3939 286.958 76.0909 289.625 70.6364C292.322 65.1818 296.08 60.9242 300.898 57.8636C305.746 54.803 311.413 53.2727 317.898 53.2727C321.837 53.2727 325.655 53.9242 329.352 55.2273C333.049 56.5303 336.367 58.5758 339.307 61.3636C342.246 64.1515 344.564 67.7727 346.261 72.2273C347.958 76.6515 348.807 82.0303 348.807 88.3636V93.1818H293.307V83H335.489C335.489 79.4242 334.761 76.2576 333.307 73.5C331.852 70.7121 329.807 68.5151 327.17 66.9091C324.564 65.303 321.504 64.5 317.989 64.5C314.17 64.5 310.837 65.4394 307.989 67.3182C305.17 69.1667 302.989 71.5909 301.443 74.5909C299.928 77.5606 299.17 80.7879 299.17 84.2727V92.2273C299.17 96.8939 299.989 100.864 301.625 104.136C303.292 107.409 305.61 109.909 308.58 111.636C311.549 113.333 315.019 114.182 318.989 114.182C321.564 114.182 323.913 113.818 326.034 113.091C328.155 112.333 329.989 111.212 331.534 109.727C333.08 108.242 334.261 106.409 335.08 104.227L347.943 106.545C346.913 110.333 345.064 113.652 342.398 116.5C339.761 119.318 336.443 121.515 332.443 123.091C328.473 124.636 323.943 125.409 318.852 125.409ZM377.477 82.5455V124H363.886V54.1818H376.932V65.5455H377.795C379.402 61.8485 381.917 58.8788 385.341 56.6364C388.795 54.3939 393.144 53.2727 398.386 53.2727C403.144 53.2727 407.311 54.2727 410.886 56.2727C414.462 58.2424 417.235 61.1818 419.205 65.0909C421.174 69 422.159 73.8333 422.159 79.5909V124H408.568V81.2273C408.568 76.1667 407.25 72.2121 404.614 69.3636C401.977 66.4848 398.356 65.0455 393.75 65.0455C390.598 65.0455 387.795 65.7273 385.341 67.0909C382.917 68.4545 380.992 70.4545 379.568 73.0909C378.174 75.697 377.477 78.8485 377.477 82.5455ZM466.523 125.364C460.886 125.364 455.856 123.924 451.432 121.045C447.038 118.136 443.583 114 441.068 108.636C438.583 103.242 437.341 96.7727 437.341 89.2273C437.341 81.6818 438.598 75.2273 441.114 69.8636C443.659 64.5 447.144 60.3939 451.568 57.5455C455.992 54.697 461.008 53.2727 466.614 53.2727C470.947 53.2727 474.432 54 477.068 55.4545C479.735 56.8788 481.795 58.5455 483.25 60.4545C484.735 62.3636 485.886 64.0455 486.705 65.5H487.523V30.9091H501.114V124H487.841V113.136H486.705C485.886 114.621 484.705 116.318 483.159 118.227C481.644 120.136 479.553 121.803 476.886 123.227C474.22 124.652 470.765 125.364 466.523 125.364ZM469.523 113.773C473.432 113.773 476.735 112.742 479.432 110.682C482.159 108.591 484.22 105.697 485.614 102C487.038 98.303 487.75 94 487.75 89.0909C487.75 84.2424 487.053 80 485.659 76.3636C484.265 72.7273 482.22 69.8939 479.523 67.8636C476.826 65.8333 473.492 64.8182 469.523 64.8182C465.432 64.8182 462.023 65.8788 459.295 68C456.568 70.1212 454.508 73.0151 453.114 76.6818C451.75 80.3485 451.068 84.4848 451.068 89.0909C451.068 93.7576 451.765 97.9545 453.159 101.682C454.553 105.409 456.614 108.364 459.341 110.545C462.098 112.697 465.492 113.773 469.523 113.773ZM551.739 124H521.602V30.9091H552.693C561.814 30.9091 569.648 32.7727 576.193 36.5C582.739 40.197 587.754 45.5151 591.239 52.4545C594.754 59.3636 596.511 67.6515 596.511 77.3182C596.511 87.0152 594.739 95.3485 591.193 102.318C587.678 109.288 582.587 114.652 575.92 118.409C569.254 122.136 561.193 124 551.739 124ZM535.648 111.727H550.966C558.057 111.727 563.951 110.394 568.648 107.727C573.345 105.03 576.86 101.136 579.193 96.0455C581.527 90.9242 582.693 84.6818 582.693 77.3182C582.693 70.0152 581.527 63.8182 579.193 58.7273C576.89 53.6364 573.451 49.7727 568.875 47.1364C564.299 44.5 558.617 43.1818 551.83 43.1818H535.648V111.727ZM657.114 95.0455V54.1818H670.75V124H657.386V111.909H656.659C655.053 115.636 652.477 118.742 648.932 121.227C645.417 123.682 641.038 124.909 635.795 124.909C631.311 124.909 627.341 123.924 623.886 121.955C620.462 119.955 617.765 117 615.795 113.091C613.856 109.182 612.886 104.348 612.886 98.5909V54.1818H626.477V96.9545C626.477 101.712 627.795 105.5 630.432 108.318C633.068 111.136 636.492 112.545 640.705 112.545C643.25 112.545 645.78 111.909 648.295 110.636C650.841 109.364 652.947 107.439 654.614 104.864C656.311 102.288 657.144 99.0152 657.114 95.0455ZM718.42 125.409C711.663 125.409 705.845 123.879 700.966 120.818C696.117 117.727 692.39 113.47 689.784 108.045C687.178 102.621 685.875 96.4091 685.875 89.4091C685.875 82.3182 687.208 76.0606 689.875 70.6364C692.542 65.1818 696.299 60.9242 701.148 57.8636C705.996 54.803 711.708 53.2727 718.284 53.2727C723.587 53.2727 728.314 54.2576 732.466 56.2273C736.617 58.1667 739.966 60.8939 742.511 64.4091C745.087 67.9242 746.617 72.0303 747.102 76.7273H733.875C733.148 73.4545 731.481 70.6364 728.875 68.2727C726.299 65.9091 722.845 64.7273 718.511 64.7273C714.723 64.7273 711.405 65.7273 708.557 67.7273C705.739 69.697 703.542 72.5151 701.966 76.1818C700.39 79.8182 699.602 84.1212 699.602 89.0909C699.602 94.1818 700.375 98.5758 701.92 102.273C703.466 105.97 705.648 108.833 708.466 110.864C711.314 112.894 714.663 113.909 718.511 113.909C721.087 113.909 723.42 113.439 725.511 112.5C727.633 111.53 729.405 110.152 730.83 108.364C732.284 106.576 733.299 104.424 733.875 101.909H747.102C746.617 106.424 745.148 110.455 742.693 114C740.239 117.545 736.951 120.333 732.83 122.364C728.739 124.394 723.936 125.409 718.42 125.409ZM774.136 100.318L774.045 83.7273H776.409L804.227 54.1818H820.5L788.773 87.8182H786.636L774.136 100.318ZM761.636 124V30.9091H775.227V124H761.636ZM805.727 124L780.727 90.8182L790.091 81.3182L822.409 124H805.727Z" fill="black"/>
<defs>
<clipPath id="clip0_9270_32">
<rect width="128" height="128" fill="white" transform="translate(0 14)"/>
</clipPath>
</defs>
</svg>
